# xmcd
#
# Track frame offsets:
#	150
#	10562
#	38236
#	59859
#	84248
#	104455
#	133959
#	153942
#	175368
#	215763
#	243649
#
# Disc length: 3496 seconds
#
# Revision: 0
# Processed by: cddbd v1.4PL0 Copyright (c) Steve Scherf et al.
# Submitted via: EasyCDDAExtractor 4.6.0.1
#
DISCID=9a0da60b
DTITLE=East Blues Experience - Live CD1
DYEAR=2001
DGENRE=Blues
TTITLE0=Ready Steady Go
TTITLE1=Cold Shot
TTITLE2=Walkin` On The Sunset
TTITLE3=The Saturday Night Fish Fry
TTITLE4=Early In The Morning
TTITLE5=Got My Mojo Workin´
TTITLE6=Closer To It
TTITLE7=Give It Up
TTITLE8=It´S So Easy To Love You
TTITLE9=Back To The City
TTITLE10=Knockin` At Your Window
EXTD=Live at The Groeninger Bad in Magdeburg/Germany
EXTT0=
EXTT1=
EXTT2=
EXTT3=
EXTT4=
EXTT5=
EXTT6=
EXTT7=
EXTT8=
EXTT9=
EXTT10=
PLAYORDER=
